<svg width="25" height="18" viewBox="0 0 25 18" fill="none" xmlns="http://www.w3.org/2000/svg">
<path d="M17.6428 12.0652C17.6428 12.3195 17.5674 12.5681 17.4261 12.7795C17.2849 12.9909 17.0841 13.1557 16.8491 13.253C16.6142 13.3503 16.3557 13.3758 16.1063 13.3262C15.8569 13.2766 15.6278 13.1541 15.448 12.9743C15.2682 12.7945 15.1457 12.5654 15.0961 12.316C15.0465 12.0666 15.072 11.8081 15.1693 11.5732C15.2666 11.3382 15.4314 11.1374 15.6428 10.9962C15.8542 10.8549 16.1028 10.7795 16.3571 10.7795C16.6981 10.7795 17.0251 10.9149 17.2662 11.1561C17.5074 11.3972 17.6428 11.7242 17.6428 12.0652ZM8.64284 10.7795C8.38855 10.7795 8.13997 10.8549 7.92854 10.9962C7.7171 11.1374 7.55231 11.3382 7.455 11.5732C7.35769 11.8081 7.33222 12.0666 7.38183 12.316C7.43144 12.5654 7.5539 12.7945 7.73371 12.9743C7.91352 13.1541 8.14261 13.2766 8.39201 13.3262C8.64141 13.3758 8.89993 13.3503 9.13486 13.253C9.36979 13.1557 9.57059 12.9909 9.71187 12.7795C9.85315 12.5681 9.92855 12.3195 9.92855 12.0652C9.92855 11.7242 9.79309 11.3972 9.55198 11.1561C9.31086 10.9149 8.98383 10.7795 8.64284 10.7795ZM24.4999 13.3509V15.9223C24.4999 16.377 24.3193 16.813 23.9978 17.1345C23.6764 17.456 23.2403 17.6366 22.7857 17.6366H2.21429C1.75963 17.6366 1.3236 17.456 1.0021 17.1345C0.680615 16.813 0.500004 16.377 0.500004 15.9223V13.4688C0.498748 11.8166 0.834452 10.1816 1.48659 8.66361C2.13874 7.14563 3.09361 5.7766 4.29285 4.64021L1.60357 1.96165C1.46689 1.79511 1.39704 1.58368 1.40761 1.3685C1.41818 1.15331 1.50841 0.949746 1.66075 0.797402C1.8131 0.645059 2.01666 0.554827 2.23185 0.544258C2.44703 0.53369 2.65846 0.60354 2.825 0.740222L5.62142 3.54736C7.63476 2.12148 10.0402 1.35392 12.5073 1.35008C14.9744 1.34624 17.3822 2.10632 19.4 3.52593L22.175 0.740222C22.3415 0.60354 22.5529 0.53369 22.7681 0.544258C22.9833 0.554827 23.1869 0.645059 23.3392 0.797402C23.4915 0.949746 23.5818 1.15331 23.5923 1.3685C23.6029 1.58368 23.5331 1.79511 23.3964 1.96165L20.7285 4.61878L20.975 4.8545C22.0963 5.96643 22.9853 7.29019 23.5905 8.74879C24.1956 10.2074 24.5048 11.7718 24.4999 13.3509ZM22.7857 13.3509C22.7903 11.9968 22.5256 10.6553 22.0068 9.40454C21.4881 8.15374 20.7258 7.01861 19.7642 6.06521C19.5021 5.80817 19.2267 5.56498 18.9392 5.33664C18.9392 5.3338 18.9381 5.33107 18.9361 5.32906C18.9341 5.32705 18.9314 5.32593 18.9285 5.32593C17.1091 3.85612 14.8389 3.05778 12.5 3.06522H12.4678C6.8107 3.08665 2.21429 7.75806 2.21429 13.4688V15.9223H22.7857V13.3509Z" fill="#212529"/>
</svg>
