<svg width="23" height="24" viewBox="0 0 23 24" fill="none" xmlns="http://www.w3.org/2000/svg">
<path d="M20.9509 14.0731C19.4309 13.0446 17.3691 13.4434 16.3394 14.9657C16.336 14.9703 16.3326 14.9771 16.328 14.9817C16.3154 15 16.304 15.0171 16.2937 15.0354H16.2914C15.336 16.4149 13.7463 17.3189 11.944 17.3189C9.02057 17.3189 6.65029 14.9371 6.65029 12C6.65029 9.06286 9.02057 6.68114 11.944 6.68114C13.768 6.68114 15.376 7.60686 16.3269 9.01714C16.3314 9.02286 16.336 9.02971 16.3406 9.03657C17.3691 10.5577 19.4309 10.9566 20.9509 9.92686C22.4731 8.89486 22.8743 6.81943 21.8457 5.28914C21.8389 5.27771 21.8309 5.26857 21.824 5.25714C19.6743 2.08343 16.0514 0 11.944 0C5.34743 0 0 5.37257 0 12C0 18.6274 5.34743 24 11.944 24C16.04 24 19.6549 21.9291 21.8069 18.7726L21.8046 18.7703C21.8171 18.752 21.832 18.7326 21.8457 18.7097C22.8731 17.1806 22.472 15.1051 20.9509 14.0731Z" fill="#212529"/>
</svg>
