<svg width="24" height="24" viewBox="0 0 24 24" fill="none" xmlns="http://www.w3.org/2000/svg">
<g clip-path="url(#clip0_15_71)">
<path d="M20.317 4.36985C18.761 3.65561 17.119 3.1463 15.4319 2.85465C15.4166 2.85179 15.4007 2.85384 15.3867 2.8605C15.3726 2.86716 15.3609 2.8781 15.3534 2.89175C15.1424 3.26705 14.9087 3.75655 14.7451 4.14125C12.9004 3.86505 11.0651 3.86505 9.2583 4.14125C9.0947 3.74795 8.8525 3.26705 8.6406 2.89175C8.63276 2.87841 8.62107 2.86774 8.60706 2.86114C8.59306 2.85454 8.57739 2.85231 8.5621 2.85475C6.87488 3.14572 5.2327 3.65499 3.6769 4.36975C3.66359 4.37544 3.65238 4.38512 3.6448 4.39745C0.533404 9.04585 -0.318996 13.58 0.099204 18.0579C0.100386 18.0688 0.103757 18.0794 0.109116 18.0891C0.114476 18.0987 0.121714 18.1072 0.130404 18.1139C2.1832 19.6215 4.1717 20.5368 6.1233 21.1434C6.13848 21.1479 6.15468 21.1477 6.16972 21.1427C6.18477 21.1378 6.19795 21.1284 6.2075 21.1158C6.6691 20.4854 7.0806 19.8206 7.4335 19.1216C7.43835 19.112 7.44112 19.1015 7.44163 19.0908C7.44213 19.0801 7.44036 19.0693 7.43643 19.0594C7.4325 19.0494 7.4265 19.0403 7.41883 19.0328C7.41115 19.0253 7.40198 19.0196 7.3919 19.0159C6.7391 18.7683 6.1176 18.4664 5.5197 18.1236C5.5088 18.1171 5.49964 18.1082 5.49304 18.0974C5.48643 18.0866 5.48258 18.0744 5.48183 18.0617C5.48108 18.0491 5.48345 18.0365 5.48873 18.025C5.49401 18.0135 5.50204 18.0035 5.5121 17.9959C5.6379 17.9016 5.7638 17.8035 5.8839 17.7044C5.89458 17.6956 5.9075 17.69 5.92121 17.6881C5.93492 17.6863 5.94887 17.6883 5.9615 17.6939C9.8893 19.4872 14.1415 19.4872 18.0229 17.6939C18.0355 17.6879 18.0496 17.6856 18.0635 17.6873C18.0774 17.689 18.0906 17.6946 18.1014 17.7035C18.2216 17.8025 18.3474 17.9016 18.4742 17.9959C18.4843 18.0034 18.4924 18.0134 18.4977 18.0248C18.5031 18.0362 18.5055 18.0488 18.5049 18.0614C18.5042 18.074 18.5005 18.0863 18.494 18.0971C18.4875 18.1079 18.4784 18.117 18.4676 18.1235C17.8695 18.4728 17.2429 18.771 16.5946 19.0149C16.5845 19.0187 16.5754 19.0246 16.5678 19.0323C16.5602 19.0399 16.5542 19.049 16.5504 19.0591C16.5466 19.0692 16.5449 19.0799 16.5455 19.0907C16.5461 19.1015 16.549 19.112 16.5539 19.1216C16.9143 19.8196 17.3258 20.4844 17.7789 21.1148C17.7882 21.1278 17.8013 21.1375 17.8164 21.1427C17.8315 21.1478 17.8478 21.148 17.8631 21.1434C19.8241 20.5367 21.8126 19.6214 23.8654 18.1139C23.8742 18.1075 23.8816 18.0992 23.887 18.0897C23.8924 18.0802 23.8957 18.0696 23.8967 18.0588C24.3971 12.8818 23.0585 8.38485 20.3482 4.39835C20.3416 4.3854 20.3305 4.37535 20.317 4.36985ZM8.02 15.3313C6.8375 15.3313 5.8631 14.2456 5.8631 12.9123C5.8631 11.5791 6.8186 10.4934 8.0201 10.4934C9.2309 10.4934 10.1958 11.5886 10.1769 12.9124C10.1769 14.2456 9.2214 15.3313 8.02 15.3313ZM15.9948 15.3313C14.8123 15.3313 13.8379 14.2456 13.8379 12.9123C13.8379 11.5791 14.7933 10.4934 15.9948 10.4934C17.2056 10.4934 18.1705 11.5886 18.1516 12.9124C18.1516 14.2456 17.2056 15.3313 15.9948 15.3313Z" fill="#212529"/>
</g>
<defs>
<clipPath id="clip0_15_71">
<rect width="24" height="24" fill="white"/>
</clipPath>
</defs>
</svg>
