<svg width="25" height="19" viewBox="0 0 25 19" fill="none" xmlns="http://www.w3.org/2000/svg">
<path d="M10.7526 11.1754C10.7526 11.4128 10.6822 11.6449 10.5503 11.8423C10.4184 12.0397 10.231 12.1935 10.0116 12.2844C9.7923 12.3752 9.55095 12.399 9.31811 12.3527C9.08526 12.3064 8.87138 12.1921 8.70351 12.0242C8.53564 11.8563 8.42132 11.6424 8.37501 11.4096C8.32869 11.1768 8.35246 10.9354 8.44331 10.7161C8.53416 10.4967 8.68801 10.3093 8.88541 10.1774C9.0828 10.0455 9.31488 9.97509 9.55228 9.97509C9.87063 9.97509 10.1759 10.1016 10.401 10.3267C10.6262 10.5518 10.7526 10.8571 10.7526 11.1754ZM15.9541 9.97509C15.7167 9.97509 15.4846 10.0455 15.2872 10.1774C15.0898 10.3093 14.936 10.4967 14.8451 10.7161C14.7543 10.9354 14.7305 11.1768 14.7768 11.4096C14.8231 11.6424 14.9374 11.8563 15.1053 12.0242C15.2732 12.1921 15.4871 12.3064 15.7199 12.3527C15.9527 12.399 16.1941 12.3752 16.4134 12.2844C16.6327 12.1935 16.8202 12.0397 16.9521 11.8423C17.084 11.6449 17.1544 11.4128 17.1544 11.1754C17.1544 10.8571 17.0279 10.5518 16.8028 10.3267C16.5777 10.1016 16.2724 9.97509 15.9541 9.97509ZM24.1964 15.4266C22.5359 16.867 20.3053 17.9673 17.7546 18.5875C17.6268 18.6189 17.496 18.6356 17.3645 18.6375C17.068 18.6373 16.7777 18.5536 16.5265 18.3962C16.2753 18.2388 16.0735 18.0139 15.9441 17.7473L14.9938 15.8467C13.5051 16.0201 12.0013 16.0201 10.5125 15.8467L9.56228 17.7473C9.43283 18.0139 9.231 18.2388 8.97984 18.3962C8.72868 18.5536 8.4383 18.6373 8.14189 18.6375C8.01038 18.6356 7.87951 18.6189 7.75178 18.5875C5.20106 17.9673 2.97044 16.867 1.30998 15.4266C1.07578 15.2252 0.904886 14.9603 0.817915 14.6639C0.730943 14.3674 0.731612 14.0522 0.81984 13.7561L4.22079 2.43299C4.28615 2.20397 4.40307 1.99295 4.56258 1.8161C4.72209 1.63925 4.91997 1.50126 5.14105 1.4127C6.1421 0.995598 7.18034 0.674078 8.24191 0.452432C8.62708 0.365273 9.0309 0.424525 9.37479 0.618658C9.71868 0.812791 9.97805 1.12792 10.1024 1.50273L10.7026 3.28322C12.0657 3.13654 13.4406 3.13654 14.8037 3.28322L15.4039 1.50273C15.5283 1.12792 15.7877 0.812791 16.1316 0.618658C16.4754 0.424525 16.8793 0.365273 17.2644 0.452432C18.326 0.674078 19.3643 0.995598 20.3653 1.4127C20.5864 1.50126 20.7843 1.63925 20.9438 1.8161C21.1033 1.99295 21.2202 2.20397 21.2856 2.43299L24.6865 13.7561C24.7747 14.0522 24.7754 14.3674 24.6884 14.6639C24.6015 14.9603 24.4306 15.2252 24.1964 15.4266ZM23.1461 14.2263L19.7551 2.89311C18.8406 2.51318 17.893 2.21852 16.9243 2.01287L16.4142 3.51329C17.074 3.63975 17.7255 3.80678 18.3647 4.01343C18.4646 4.04627 18.557 4.09845 18.6366 4.16699C18.7163 4.23554 18.7817 4.3191 18.829 4.41291C18.8764 4.50673 18.9048 4.60895 18.9127 4.71375C18.9206 4.81855 18.9077 4.92388 18.8749 5.02371C18.842 5.12354 18.7899 5.21593 18.7213 5.29559C18.6528 5.37526 18.5692 5.44065 18.4754 5.48802C18.3816 5.53539 18.2794 5.56382 18.1746 5.57168C18.0698 5.57955 17.9644 5.56669 17.8646 5.53385C16.3342 5.03371 14.5637 4.77364 12.7532 4.77364C10.9427 4.77364 9.17217 5.03371 7.64175 5.53385C7.56136 5.56165 7.47673 5.57519 7.39168 5.57386C7.20136 5.57391 7.01725 5.50613 6.8724 5.38267C6.72756 5.25922 6.63145 5.08819 6.60133 4.90026C6.57122 4.71234 6.60907 4.51984 6.70808 4.35731C6.8071 4.19478 6.9608 4.07285 7.14161 4.01343C7.78089 3.80678 8.43231 3.63975 9.09215 3.51329L8.59201 2.01287C7.6212 2.21835 6.67055 2.50958 5.75122 2.88311L2.35027 14.2163C3.82068 15.4966 5.82124 16.4669 8.13188 17.0371L8.85208 15.5867C8.27372 15.4697 7.70261 15.3194 7.14161 15.1365C7.04177 15.1037 6.94939 15.0515 6.86972 14.983C6.79006 14.9144 6.72467 14.8309 6.6773 14.737C6.62993 14.6432 6.6015 14.541 6.59363 14.4362C6.58577 14.3314 6.59862 14.2261 6.63146 14.1263C6.6643 14.0264 6.71648 13.934 6.78503 13.8544C6.85357 13.7747 6.93714 13.7093 7.03095 13.6619C7.12476 13.6146 7.22699 13.5861 7.33179 13.5783C7.43659 13.5704 7.54191 13.5833 7.64175 13.6161C9.17217 14.1162 10.9427 14.3763 12.7532 14.3763C14.5637 14.3763 16.3342 14.1162 17.8646 13.6161C18.0662 13.5498 18.2859 13.5663 18.4754 13.6619C18.6649 13.7576 18.8086 13.9246 18.8749 14.1263C18.9412 14.3279 18.9247 14.5476 18.829 14.737C18.7334 14.9265 18.5664 15.0702 18.3647 15.1365C17.8037 15.3194 17.2326 15.4697 16.6543 15.5867L17.3745 17.0371C19.6851 16.4669 21.6857 15.4966 23.1461 14.2263Z" fill="#212529"/>
</svg>
