<svg width="251" height="251" viewBox="0 0 251 251" fill="none" xmlns="http://www.w3.org/2000/svg">
<path d="M125.893 0.55732C92.7401 0.55732 60.9453 13.7267 37.504 37.168C14.0627 60.6112 0.893311 92.4032 0.893311 125.557C0.893311 158.711 14.0627 190.505 37.504 213.947C60.9472 237.388 92.7392 250.557 125.893 250.557C159.047 250.557 190.841 237.388 214.283 213.947C237.724 190.503 250.893 158.711 250.893 125.557C250.893 92.4032 237.724 60.6093 214.283 37.168C190.839 13.7267 159.047 0.55732 125.893 0.55732ZM166.655 169.035C166.655 170.476 166.081 171.859 165.062 172.878C164.043 173.897 162.66 174.47 161.219 174.47H90.5693C87.5668 174.47 85.1338 172.037 85.1338 169.035V128.273C85.1338 125.273 87.5668 122.84 90.5693 122.84C93.57 122.84 96.0029 125.273 96.0029 128.273V163.601H155.789V128.273C155.789 125.273 158.222 122.84 161.223 122.84C164.225 122.84 166.658 125.273 166.658 128.273L166.655 169.035ZM181.764 111.969C180.252 114.553 176.935 115.428 174.345 113.927L125.431 85.3662L76.5176 113.927C73.9372 115.275 70.7509 114.351 69.2932 111.83C67.8357 109.308 68.6254 106.086 71.082 104.524L122.278 74.6317H122.28C123.106 74.1532 124.043 73.9002 124.997 73.8984H125.894C126.849 73.9002 127.787 74.1532 128.611 74.6317L179.807 104.524H179.809C181.057 105.25 181.965 106.444 182.333 107.84C182.699 109.237 182.495 110.722 181.765 111.968L181.764 111.969Z" fill="#212529"/>
</svg>
