<svg width="17" height="24" viewBox="0 0 17 24" fill="none" xmlns="http://www.w3.org/2000/svg">
<path d="M14.6823 8.28934C15.4653 7.72151 16.0484 6.92042 16.3482 6.00085C16.648 5.08129 16.649 4.09042 16.3512 3.17023C16.0533 2.25003 15.4719 1.44771 14.6901 0.878233C13.9083 0.308752 12.9664 0.00132649 11.9991 0H4.58237C3.61517 0.00132649 2.67321 0.308752 1.89143 0.878233C1.10966 1.44771 0.528189 2.25003 0.230335 3.17023C-0.0675182 4.09042 -0.0664734 5.08129 0.23332 6.00085C0.533114 6.92042 1.11627 7.72151 1.89925 8.28934C1.31142 8.71269 0.83265 9.26973 0.50243 9.9145C0.172211 10.5593 0 11.2733 0 11.9977C0 12.7221 0.172211 13.4362 0.50243 14.0809C0.83265 14.7257 1.31142 15.2828 1.89925 15.7061C1.26341 16.1656 0.756219 16.7807 0.426281 17.4924C0.0963426 18.2041 -0.0452894 18.9887 0.0149552 19.7708C0.0751998 20.553 0.335302 21.3066 0.77034 21.9594C1.20538 22.6122 1.80077 23.1424 2.49948 23.4991C3.19818 23.8558 3.97678 24.0271 4.76068 23.9965C5.54457 23.966 6.30749 23.7347 6.97633 23.3247C7.64517 22.9147 8.19752 22.3399 8.58047 21.6552C8.96341 20.9705 9.1641 20.199 9.16332 19.4145V15.5861C9.63881 15.9873 10.191 16.2875 10.7863 16.4683C11.3816 16.649 12.0075 16.7067 12.6258 16.6376C13.2441 16.5686 13.8418 16.3743 14.3826 16.0667C14.9233 15.7591 15.3958 15.3446 15.7711 14.8484C16.1463 14.3522 16.4166 13.7847 16.5654 13.1807C16.7142 12.5766 16.7384 11.9485 16.6366 11.3348C16.5347 10.7211 16.3089 10.1345 15.9729 9.61093C15.6369 9.08733 15.1978 8.63766 14.6823 8.28934ZM14.835 4.58095C14.8321 5.33217 14.5324 6.05181 14.0012 6.58301C13.47 7.11421 12.7504 7.4139 11.9991 7.41677H9.16332V1.74512H11.9991C12.7504 1.748 13.47 2.04769 14.0012 2.57889C14.5324 3.11009 14.8321 3.82973 14.835 4.58095ZM1.74655 4.58095C1.74942 3.82973 2.04912 3.11009 2.58032 2.57889C3.11152 2.04769 3.83115 1.748 4.58237 1.74512H7.4182V7.41677H4.58237C3.83115 7.4139 3.11152 7.11421 2.58032 6.58301C2.04912 6.05181 1.74942 5.33217 1.74655 4.58095ZM1.74655 11.9977C1.74942 11.2465 2.04912 10.5269 2.58032 9.99567C3.11152 9.46447 3.83115 9.16477 4.58237 9.1619H7.4182V14.8335H4.58237C3.83115 14.8307 3.11152 14.531 2.58032 13.9998C2.04912 13.4686 1.74942 12.7489 1.74655 11.9977ZM4.58237 22.2503C3.83027 22.2503 3.10896 21.9516 2.57714 21.4197C2.04532 20.8879 1.74655 20.1666 1.74655 19.4145C1.74655 18.6624 2.04532 17.9411 2.57714 17.4093C3.10896 16.8774 3.83027 16.5787 4.58237 16.5787H7.4182V19.4145C7.41533 20.1657 7.11563 20.8854 6.58443 21.4166C6.05323 21.9478 5.3336 22.2475 4.58237 22.2503ZM11.9991 14.8335C11.247 14.8335 10.5257 14.5348 9.99392 14.003C9.4621 13.4711 9.16332 12.7498 9.16332 11.9977C9.16332 11.2456 9.4621 10.5243 9.99392 9.99249C10.5257 9.46067 11.247 9.1619 11.9991 9.1619C12.7513 9.1619 13.4726 9.46067 14.0044 9.99249C14.5362 10.5243 14.835 11.2456 14.835 11.9977C14.835 12.7498 14.5362 13.4711 14.0044 14.003C13.4726 14.5348 12.7513 14.8335 11.9991 14.8335Z" fill="#212529"/>
</svg>
