<svg width="22" height="24" viewBox="0 0 22 24" fill="none" xmlns="http://www.w3.org/2000/svg">
<path d="M20.4444 20.4445C19.9729 20.4445 19.5207 20.2572 19.1873 19.9238C18.8539 19.5904 18.6666 19.1382 18.6666 18.6667V17.7778C18.6659 17.18 18.5149 16.592 18.2276 16.0678C17.9402 15.5436 17.5257 15.1 17.0222 14.7778C17.8074 14.2019 18.446 13.4491 18.8861 12.5804C19.3263 11.7118 19.5556 10.7516 19.5555 9.77781V8.88892C19.5444 7.78479 19.2498 6.70203 18.7 5.74449C18.9708 4.86744 19.0574 3.94385 18.9541 3.03176C18.8509 2.11966 18.56 1.23879 18.1 0.444499C18.024 0.308286 17.9127 0.195101 17.7777 0.116878C17.6428 0.0386559 17.4893 -0.00170387 17.3333 5.51349e-05C16.2979 -0.00254807 15.2762 0.237276 14.3501 0.700332C13.424 1.16339 12.6191 1.83682 12 2.66672H9.33331C8.71414 1.83682 7.90929 1.16339 6.98318 0.700332C6.05707 0.237276 5.03541 -0.00254807 3.99999 5.51349e-05C3.84403 -0.00170387 3.69049 0.0386559 3.55556 0.116878C3.42062 0.195101 3.3093 0.308286 3.23333 0.444499C2.77324 1.23879 2.48243 2.11966 2.37917 3.03176C2.27592 3.94385 2.36245 4.86744 2.63333 5.74449C2.08347 6.70203 1.78887 7.78479 1.77777 8.88892V9.77781C1.7777 10.7516 2.00702 11.7118 2.44715 12.5804C2.88728 13.4491 3.52584 14.2019 4.3111 14.7778C3.80755 15.1 3.39306 15.5436 3.10571 16.0678C2.81837 16.592 2.66739 17.18 2.66666 17.7778V18.6667C2.66666 19.1382 2.47936 19.5904 2.14596 19.9238C1.81257 20.2572 1.36038 20.4445 0.888887 20.4445C0.653139 20.4445 0.427048 20.5381 0.260349 20.7048C0.0936505 20.8715 0 21.0976 0 21.3333C0 21.5691 0.0936505 21.7952 0.260349 21.9619C0.427048 22.1286 0.653139 22.2222 0.888887 22.2222C1.83098 22.2193 2.73364 21.8438 3.3998 21.1776C4.06596 20.5114 4.4415 19.6088 4.44443 18.6667V17.7778C4.44443 17.3063 4.63174 16.8541 4.96513 16.5207C5.29853 16.1873 5.75071 16 6.22221 16H7.55554V20.4445C7.55554 20.9159 7.36824 21.3681 7.03484 21.7015C6.70144 22.0349 6.24926 22.2222 5.77776 22.2222C5.54202 22.2222 5.31593 22.3159 5.14923 22.4826C4.98253 22.6493 4.88888 22.8754 4.88888 23.1111C4.88888 23.3469 4.98253 23.573 5.14923 23.7397C5.31593 23.9064 5.54202 24 5.77776 24C6.71985 23.9971 7.62252 23.6215 8.28868 22.9554C8.95484 22.2892 9.33038 21.3865 9.33331 20.4445V16H12V20.4445C12.0029 21.3865 12.3784 22.2892 13.0446 22.9554C13.7108 23.6215 14.6134 23.9971 15.5555 24C15.7913 24 16.0174 23.9064 16.1841 23.7397C16.3508 23.573 16.4444 23.3469 16.4444 23.1111C16.4444 22.8754 16.3508 22.6493 16.1841 22.4826C16.0174 22.3159 15.7913 22.2222 15.5555 22.2222C15.084 22.2222 14.6318 22.0349 14.2984 21.7015C13.965 21.3681 13.7777 20.9159 13.7777 20.4445V16H15.1111C15.5826 16 16.0348 16.1873 16.3682 16.5207C16.7015 16.8541 16.8889 17.3063 16.8889 17.7778V18.6667C16.8918 19.6088 17.2673 20.5114 17.9335 21.1776C18.5996 21.8438 19.5023 22.2193 20.4444 22.2222C20.6801 22.2222 20.9062 22.1286 21.0729 21.9619C21.2396 21.7952 21.3333 21.5691 21.3333 21.3333C21.3333 21.0976 21.2396 20.8715 21.0729 20.7048C20.9062 20.5381 20.6801 20.4445 20.4444 20.4445ZM3.55555 9.77781V8.88892C3.57188 8.00023 3.83752 7.13399 4.32221 6.38893C4.41466 6.26898 4.4745 6.12715 4.49591 5.97724C4.51733 5.82732 4.4996 5.67441 4.44443 5.53338C4.21363 4.93761 4.10267 4.30214 4.11793 3.66341C4.13318 3.02468 4.27434 2.39523 4.53332 1.81116C5.26043 1.88678 5.961 2.12598 6.58253 2.51083C7.20406 2.89567 7.73043 3.41619 8.1222 4.03338C8.20205 4.15866 8.31202 4.26192 8.44207 4.33374C8.57212 4.40555 8.71809 4.44363 8.86665 4.44449H12.4666C12.6152 4.44363 12.7612 4.40555 12.8912 4.33374C13.0213 4.26192 13.1312 4.15866 13.2111 4.03338C13.6029 3.41619 14.1292 2.89567 14.7508 2.51083C15.3723 2.12598 16.0729 1.88678 16.8 1.81116C17.0589 2.39523 17.2001 3.02468 17.2154 3.66341C17.2306 4.30214 17.1197 4.93761 16.8889 5.53338C16.8368 5.67496 16.8207 5.82724 16.8421 5.97657C16.8634 6.12589 16.9215 6.26758 17.0111 6.38893C17.4958 7.13399 17.7614 8.00023 17.7777 8.88892V9.77781C17.7777 10.3615 17.6628 10.9394 17.4394 11.4786C17.2161 12.0178 16.8887 12.5078 16.476 12.9205C16.0633 13.3332 15.5733 13.6606 15.0341 13.8839C14.4949 14.1073 13.917 14.2222 13.3333 14.2222H7.99998C6.82124 14.2222 5.69079 13.754 4.85729 12.9205C4.0238 12.087 3.55555 10.9565 3.55555 9.77781Z" fill="#212529"/>
</svg>
