<svg width="24" height="24" viewBox="0 0 24 24" fill="none" xmlns="http://www.w3.org/2000/svg">
<g clip-path="url(#clip0_15_73)">
<path d="M24 5.45697V19.366C24 20.27 23.268 21.002 22.364 21.002H18.545V11.73L12 16.64L5.455 11.73V21.003H1.636C1.42107 21.003 1.20825 20.9606 1.0097 20.8783C0.811145 20.7961 0.63075 20.6755 0.47882 20.5234C0.32689 20.3714 0.206404 20.1909 0.124246 19.9923C0.0420884 19.7937 -0.000131068 19.5809 3.05652e-07 19.366V5.45697C3.05652e-07 3.43397 2.309 2.27897 3.927 3.49297L5.455 4.63997L12 9.54797L18.545 4.63797L20.073 3.49297C21.69 2.27997 24 3.43397 24 5.45697Z" fill="#212529"/>
</g>
<defs>
<clipPath id="clip0_15_73">
<rect width="24" height="24" fill="white"/>
</clipPath>
</defs>
</svg>
