<svg width="25" height="24" viewBox="0 0 25 24" fill="none" xmlns="http://www.w3.org/2000/svg">
<path d="M23.8004 11.5714H18.979C19.8885 10.328 20.3766 8.82629 20.3718 7.28571C20.369 5.35429 19.6005 3.50279 18.2348 2.13707C16.869 0.771344 15.0175 0.00283408 13.0861 0C12.8588 0 12.6408 0.0903058 12.48 0.251051C12.3193 0.411797 12.229 0.629814 12.229 0.857143V5.67857C10.9855 4.76903 9.48382 4.28097 7.94325 4.28571C6.01183 4.28855 4.16032 5.05706 2.7946 6.42278C1.42888 7.7885 0.66037 9.64001 0.657536 11.5714C0.657536 11.7988 0.747841 12.0168 0.908587 12.1775C1.06933 12.3383 1.28735 12.4286 1.51468 12.4286H6.33611C5.42656 13.672 4.9385 15.1737 4.94325 16.7143C4.94608 18.6457 5.71459 20.4972 7.08032 21.8629C8.44604 23.2287 10.2975 23.9972 12.229 24C12.4563 24 12.6743 23.9097 12.8351 23.7489C12.9958 23.5882 13.0861 23.3702 13.0861 23.1429V18.3214C14.3295 19.231 15.8312 19.719 17.3718 19.7143C19.3032 19.7115 21.1547 18.9429 22.5205 17.5772C23.8862 16.2115 24.6547 14.36 24.6575 12.4286C24.6575 12.2012 24.5672 11.9832 24.4065 11.8225C24.2457 11.6617 24.0277 11.5714 23.8004 11.5714ZM13.9432 1.77857C15.2559 1.98517 16.4519 2.65326 17.316 3.66275C18.1802 4.67223 18.6558 5.95688 18.6575 7.28571C18.6609 8.10479 18.4819 8.91435 18.1335 9.65564C17.7851 10.3969 17.276 11.0514 16.6432 11.5714H13.9432V1.77857ZM7.94325 6C8.76233 5.99661 9.57189 6.17561 10.3132 6.52402C11.0545 6.87242 11.7089 7.3815 12.229 8.01429V10.7143H2.43611C2.6427 9.40161 3.3108 8.20568 4.32028 7.34153C5.32977 6.47738 6.61441 6.0017 7.94325 6ZM11.3718 22.2214C10.0591 22.0148 8.86322 21.3467 7.99907 20.3373C7.13492 19.3278 6.65923 18.0431 6.65754 16.7143C6.65414 15.8952 6.83315 15.0857 7.18155 14.3444C7.52996 13.6031 8.03903 12.9486 8.67182 12.4286H11.3718V22.2214ZM17.3718 18C16.5527 18.0034 15.7432 17.8244 15.0019 17.476C14.2606 17.1276 13.6062 16.6185 13.0861 15.9857V13.2857H22.879C22.6724 14.5984 22.0043 15.7943 20.9948 16.6585C19.9853 17.5226 18.7007 17.9983 17.3718 18Z" fill="#212529"/>
</svg>
