<svg width="24" height="24" viewBox="0 0 24 24" fill="none" xmlns="http://www.w3.org/2000/svg">
<path d="M12.678 16.6719C12.678 18.8469 12.68 21.2369 12.677 23.1659C12.676 23.7419 12.433 23.9799 11.86 23.9989C4.81497 24.0769 2.93297 16.1279 7.39197 12.6649C5.44197 12.6809 3.37297 12.6719 1.40597 12.6719C0.0549721 12.6719 -0.00802801 12.6619 0.000971987 11.3209C0.258972 4.73795 7.94697 3.04595 11.324 7.38495L11.308 0.927946C11.307 0.232946 11.52 0.0219462 12.214 0.00294616C18.623 -0.184054 21.374 7.31095 16.64 11.3289L22.771 11.3309C23.868 11.3309 24.012 11.4359 23.999 12.5479C23.776 19.2709 16.197 20.9239 12.678 16.6719ZM12.68 1.38795L12.677 11.3599C19.237 10.8949 19.275 1.82795 12.68 1.38795ZM11.32 22.6119L11.319 12.6419C4.39197 13.2399 5.02897 22.3679 11.321 22.6119H11.32ZM1.39997 11.3149L11.35 11.3229C10.823 4.49395 1.58797 4.95595 1.39997 11.3149ZM12.638 12.6799C13.32 19.5549 22.308 18.9639 22.615 12.6899L12.638 12.6799Z" fill="#212529"/>
</svg>
