<svg width="24" height="24" viewBox="0 0 24 24" fill="none" xmlns="http://www.w3.org/2000/svg">
<g clip-path="url(#clip0_15_69)">
<path d="M23.268 5.313C22.918 2.735 20.651 0.703 17.964 0.309C17.51 0.242 15.792 0 11.813 0H11.783C7.80297 0 6.94797 0.242 6.49497 0.309C3.88197 0.692 1.49597 2.518 0.916972 5.127C0.639972 6.412 0.609972 7.837 0.660972 9.143C0.734972 11.017 0.748972 12.888 0.920972 14.754C1.03897 15.994 1.24597 17.224 1.54097 18.434C2.09097 20.671 4.31797 22.532 6.50097 23.291C8.83697 24.083 11.35 24.214 13.757 23.671C14.022 23.61 14.284 23.539 14.543 23.458C15.128 23.274 15.813 23.068 16.317 22.705C16.3237 22.7 16.3293 22.6935 16.3333 22.6861C16.3373 22.6786 16.3396 22.6704 16.34 22.662V20.853C16.34 20.8451 16.3382 20.8373 16.3347 20.8302C16.3312 20.8231 16.3262 20.8169 16.32 20.812C16.3136 20.8069 16.3061 20.8033 16.2981 20.8016C16.2902 20.7999 16.2819 20.8 16.274 20.802C14.731 21.1671 13.1505 21.35 11.565 21.347C8.83497 21.347 8.10197 20.063 7.89097 19.529C7.72214 19.0674 7.61488 18.5856 7.57197 18.096C7.57156 18.0877 7.5731 18.0794 7.57646 18.0719C7.57983 18.0643 7.58492 18.0576 7.59134 18.0523C7.59777 18.0471 7.60533 18.0434 7.61343 18.0416C7.62153 18.0398 7.62993 18.04 7.63797 18.042C9.15497 18.405 10.71 18.588 12.27 18.588C12.646 18.588 13.02 18.588 13.395 18.578C14.965 18.534 16.619 18.454 18.163 18.156C18.201 18.148 18.24 18.141 18.273 18.132C20.708 17.668 23.026 16.212 23.262 12.528C23.27 12.383 23.292 11.008 23.292 10.858C23.294 10.346 23.459 7.228 23.268 5.313ZM19.52 14.508H16.959V8.29C16.959 6.981 16.409 6.314 15.289 6.314C14.059 6.314 13.443 7.104 13.443 8.664V12.067H10.897V8.663C10.897 7.103 10.28 6.313 9.04897 6.313C7.93697 6.313 7.38097 6.981 7.37897 8.29V14.508H4.82197V8.102C4.82197 6.792 5.15897 5.752 5.83297 4.982C6.52897 4.212 7.44097 3.818 8.57297 3.818C9.88397 3.818 10.875 4.318 11.535 5.316L12.173 6.376L12.811 5.316C13.471 4.317 14.461 3.818 15.771 3.818C16.901 3.818 17.814 4.213 18.511 4.982C19.186 5.752 19.523 6.792 19.523 8.102L19.52 14.508Z" fill="#212529"/>
</g>
<defs>
<clipPath id="clip0_15_69">
<rect width="24" height="24" fill="white"/>
</clipPath>
</defs>
</svg>
