<svg width="23" height="24" viewBox="0 0 23 24" fill="none" xmlns="http://www.w3.org/2000/svg">
<path d="M0.0216851 12.0095C-0.0167146 10.4975 0.00728538 9.07192 0.00728538 7.87913C0.00728538 2.67358 3.41886 1.14719 3.41886 1.14719C5.13844 0.357597 8.08922 0.0251998 11.1588 0H11.2332C14.3016 0.0239998 17.2547 0.357597 18.9743 1.14719C18.9743 1.14719 22.3859 2.67358 22.3859 7.87913C22.3859 7.87913 22.4291 11.7203 21.9107 14.3879C21.5807 16.0799 18.9623 17.9338 15.9552 18.2926C14.388 18.4798 12.8436 18.6526 11.1972 18.5758C8.50561 18.4522 6.38043 17.9338 6.38043 17.9338C6.38043 18.1954 6.39723 18.445 6.42843 18.6778C6.52923 19.4374 6.78723 19.9918 7.15443 20.3998C8.07362 21.4198 9.6816 21.5158 11.2284 21.5686C13.4124 21.6442 15.3564 21.0298 15.3564 21.0298L15.4476 23.005C15.4476 23.005 13.9188 23.8258 11.1972 23.977C9.6972 24.0586 7.83362 23.9386 5.66284 23.365C3.82445 22.8778 2.58126 21.817 1.73887 20.3998C0.427282 18.1882 0.0972844 15.1127 0.0216851 12.0095ZM3.98165 17.9338V14.8763L6.95043 15.6023C7.46832 15.7171 7.98979 15.8151 8.51401 15.8963C9.41761 16.0355 10.3596 16.1363 11.3076 16.1783C12.5304 16.2347 13.5888 16.1579 15.6708 15.9095C17.6663 15.6707 19.4483 14.4743 19.5539 13.9295C19.6523 13.4231 19.7351 12.8231 19.8011 12.1511C19.886 11.2552 19.9408 10.3567 19.9655 9.45712C19.9835 8.84513 19.9895 8.32313 19.9859 7.94993V7.87913C19.9859 6.16315 19.5431 4.95356 18.8303 4.08957C18.6271 3.84011 18.3914 3.61895 18.1295 3.43197C18.0215 3.35517 17.9675 3.32517 17.9735 3.32757C16.7579 2.76958 14.262 2.42518 11.2332 2.39998H11.178C8.13002 2.42398 5.63404 2.76958 4.39805 3.33837C4.42565 3.32637 4.37285 3.35517 4.26365 3.43197C4.00179 3.61895 3.7661 3.84011 3.56286 4.08957C2.85006 4.95356 2.40727 6.16435 2.40727 7.87913C2.40727 8.15753 2.40726 8.35553 2.40366 8.92912C2.3929 9.93634 2.3985 10.9437 2.42047 11.9507C2.48526 14.5871 2.73726 16.5527 3.26046 17.9998C3.51486 18.7042 3.82685 19.2838 4.19645 19.7398C4.04437 19.1501 3.97293 18.5428 3.98165 17.9338ZM6.10083 5.24396C6.46476 5.24396 6.81378 5.38853 7.07112 5.64586C7.32845 5.9032 7.47302 6.25222 7.47302 6.61614C7.47302 6.98007 7.32845 7.32909 7.07112 7.58643C6.81378 7.84376 6.46476 7.98833 6.10083 7.98833C5.73691 7.98833 5.38789 7.84376 5.13055 7.58643C4.87322 7.32909 4.72865 6.98007 4.72865 6.61614C4.72865 6.25222 4.87322 5.9032 5.13055 5.64586C5.38789 5.38853 5.73691 5.24396 6.10083 5.24396Z" fill="#212529"/>
</svg>
