<svg width="24" height="24" viewBox="0 0 24 24" fill="none" xmlns="http://www.w3.org/2000/svg">
<g clip-path="url(#clip0_15_75)">
<path d="M12 0C8.8174 0 5.76516 1.26428 3.51472 3.51472C1.26428 5.76516 0 8.8174 0 12C0 15.1826 1.26428 18.2348 3.51472 20.4853C5.76516 22.7357 8.8174 24 12 24C15.1826 24 18.2348 22.7357 20.4853 20.4853C22.7357 18.2348 24 15.1826 24 12C24 8.8174 22.7357 5.76516 20.4853 3.51472C18.2348 1.26428 15.1826 0 12 0ZM17.01 4.744C17.698 4.744 18.26 5.305 18.26 5.993C18.2565 6.31733 18.1271 6.62761 17.8991 6.8583C17.6711 7.08899 17.3624 7.22201 17.0381 7.22928C16.7138 7.23655 16.3994 7.11749 16.1613 6.89726C15.9232 6.67702 15.78 6.37285 15.762 6.049L13.165 5.502L12.365 9.249C14.189 9.319 15.845 9.881 17.039 10.737C17.347 10.428 17.769 10.246 18.246 10.246C19.214 10.246 20 11.032 20 12C20 12.716 19.565 13.333 18.99 13.614C19.0185 13.7859 19.0326 13.9598 19.032 14.134C19.032 16.828 15.902 19.004 12.028 19.004C8.154 19.004 5.024 16.828 5.024 14.134C5.024 13.951 5.039 13.768 5.067 13.6C4.75743 13.4626 4.49443 13.2383 4.30998 12.9542C4.12553 12.6702 4.02757 12.3387 4.028 12C4.028 11.032 4.814 10.246 5.782 10.246C6.245 10.246 6.68 10.442 6.989 10.736C8.196 9.853 9.867 9.306 11.733 9.249L12.618 5.067C12.6391 4.98648 12.6889 4.91644 12.758 4.87C12.8298 4.82819 12.9142 4.8133 12.996 4.828L15.902 5.445C16.0002 5.23435 16.1568 5.05632 16.3532 4.93206C16.5496 4.8078 16.7776 4.74253 17.01 4.744ZM9.25 12C8.561 12 8 12.562 8 13.25C8 13.937 8.561 14.498 9.25 14.498C9.937 14.498 10.498 13.937 10.498 13.249C10.498 12.561 9.937 12 9.249 12H9.25ZM14.75 12C14.063 12 13.502 12.561 13.502 13.25C13.502 13.937 14.063 14.498 14.751 14.498C15.439 14.498 16 13.937 16 13.249C16 12.562 15.438 12 14.75 12ZM9.284 15.99C9.19761 15.9896 9.11456 16.0234 9.053 16.084C8.99223 16.1457 8.95818 16.2289 8.95818 16.3155C8.95818 16.4021 8.99223 16.4853 9.053 16.547C9.895 17.389 11.537 17.46 12.014 17.46C12.491 17.46 14.119 17.404 14.975 16.547C15.0335 16.4855 15.0684 16.4054 15.0737 16.3208C15.079 16.2361 15.0543 16.1523 15.004 16.084C14.9422 16.0229 14.8589 15.9887 14.772 15.9887C14.6851 15.9887 14.6018 16.0229 14.54 16.084C13.993 16.617 12.856 16.814 12.028 16.814C11.2 16.814 10.049 16.618 9.516 16.084C9.48551 16.0536 9.44932 16.0296 9.4095 16.0133C9.36968 15.997 9.32703 15.9897 9.284 15.99Z" fill="#212529"/>
</g>
<defs>
<clipPath id="clip0_15_75">
<rect width="24" height="24" fill="white"/>
</clipPath>
</defs>
</svg>
