<svg width="24" height="22" viewBox="0 0 24 22" fill="none" xmlns="http://www.w3.org/2000/svg">
<path d="M7.98294 14.2136C7.66514 14.2136 7.35448 14.1194 7.09024 13.9428C6.826 13.7663 6.62004 13.5153 6.49843 13.2217C6.37681 12.9281 6.34499 12.605 6.40699 12.2933C6.46899 11.9817 6.62203 11.6953 6.84674 11.4706C7.07146 11.2459 7.35777 11.0929 7.66946 11.0309C7.98116 10.9689 8.30424 11.0007 8.59784 11.1223C8.89145 11.2439 9.1424 11.4499 9.31897 11.7141C9.49553 11.9784 9.58976 12.289 9.58976 12.6068C9.58976 13.033 9.42047 13.4417 9.11914 13.743C8.8178 14.0444 8.4091 14.2136 7.98294 14.2136ZM16.0171 11C15.6993 11 15.3886 11.0942 15.1244 11.2708C14.8601 11.4474 14.6542 11.6983 14.5325 11.9919C14.4109 12.2855 14.3791 12.6086 14.4411 12.9203C14.5031 13.232 14.6561 13.5183 14.8809 13.743C15.1056 13.9677 15.3919 14.1208 15.7036 14.1828C16.0153 14.2448 16.3384 14.213 16.632 14.0913C16.9256 13.9697 17.1765 13.7638 17.3531 13.4995C17.5296 13.2353 17.6239 12.9246 17.6239 12.6068C17.6239 12.1807 17.4546 11.772 17.1533 11.4706C16.8519 11.1693 16.4432 11 16.0171 11ZM14.9525 16.3126C14.0394 16.7829 13.0271 17.0283 12 17.0283C10.9729 17.0283 9.96057 16.7829 9.04746 16.3126C8.8603 16.2312 8.64919 16.2241 8.45698 16.2927C8.26477 16.3613 8.10589 16.5005 8.01258 16.682C7.91927 16.8635 7.89853 17.0737 7.95458 17.27C8.01062 17.4662 8.13925 17.6338 8.31435 17.7386C9.45409 18.3261 10.7178 18.6326 12 18.6326C13.2822 18.6326 14.5459 18.3261 15.6857 17.7386C15.8607 17.6338 15.9894 17.4662 16.0454 17.27C16.1015 17.0737 16.0807 16.8635 15.9874 16.682C15.8941 16.5005 15.7352 16.3613 15.543 16.2927C15.3508 16.2241 15.1397 16.2312 14.9525 16.3126ZM23.0168 12.1549C23.1687 12.6942 23.2464 13.2517 23.2478 13.8119C23.2478 16.0113 22.0427 18.07 19.8433 19.5865C17.644 21.1029 14.9525 21.8461 12 21.8461C9.04746 21.8461 6.26565 21.0427 4.15669 19.5865C2.04773 18.1303 0.75223 16.0113 0.75223 13.8119C0.753585 13.2517 0.831294 12.6942 0.983211 12.1549C0.384877 11.5781 0.0332848 10.7919 0.00224434 9.96134C-0.0287962 9.13082 0.26313 8.32056 0.816737 7.70068C1.37034 7.08079 2.14258 6.69949 2.97132 6.63682C3.80005 6.57415 4.62085 6.83498 5.26138 7.36456C7.01884 6.43059 9.1278 5.88829 11.3171 5.79791L12.01 1.63021C12.0446 1.42174 12.1599 1.23529 12.3309 1.11123C12.502 0.987168 12.715 0.935491 12.9239 0.96739L15.9066 1.42935C16.1099 1.04374 16.4148 0.721064 16.7883 0.496259C17.1618 0.271453 17.5897 0.153075 18.0256 0.153935C18.4828 0.154424 18.9305 0.284969 19.3164 0.53033C19.7022 0.77569 20.0103 1.12574 20.2047 1.53962C20.399 1.9535 20.4716 2.41413 20.4141 2.86774C20.3565 3.32135 20.171 3.74921 19.8794 4.10139C19.5878 4.45357 19.202 4.71553 18.7671 4.85668C18.3322 4.99784 17.8661 5.01237 17.4232 4.89858C16.9803 4.78479 16.579 4.54737 16.266 4.21404C15.953 3.88071 15.7413 3.46523 15.6555 3.01609L13.4662 2.67464L12.944 5.80795C15.0429 5.92846 17.0515 6.47076 18.7386 7.36456C19.3792 6.83498 20.1999 6.57415 21.0287 6.63682C21.8574 6.69949 22.6297 7.08079 23.1833 7.70068C23.7369 8.32056 24.0288 9.13082 23.9978 9.96134C23.9667 10.7919 23.6151 11.5781 23.0168 12.1549ZM17.2222 2.56417C17.2222 2.72307 17.2693 2.8784 17.3576 3.01052C17.4459 3.14264 17.5713 3.24562 17.7181 3.30643C17.8649 3.36724 18.0265 3.38315 18.1823 3.35215C18.3382 3.32115 18.4813 3.24463 18.5937 3.13227C18.706 3.01991 18.7826 2.87676 18.8136 2.72091C18.8446 2.56506 18.8287 2.40352 18.7678 2.25672C18.707 2.10991 18.6041 1.98444 18.4719 1.89616C18.3398 1.80788 18.1845 1.76076 18.0256 1.76076C17.8125 1.76076 17.6082 1.8454 17.4575 1.99607C17.3068 2.14674 17.2222 2.35109 17.2222 2.56417ZM22.4444 9.79488C22.443 9.45676 22.335 9.12768 22.1357 8.8545C21.9365 8.58133 21.6561 8.37797 21.3346 8.27338C21.013 8.1688 20.6667 8.16831 20.3448 8.272C20.023 8.37568 19.7421 8.57825 19.542 8.85087C19.4253 9.00912 19.2551 9.11971 19.0631 9.16218C18.8711 9.20464 18.6702 9.17611 18.4976 9.08185L18.4474 9.05172C16.6799 7.97716 14.3902 7.38464 12 7.38464C9.61989 7.38464 7.33017 7.97716 5.55262 9.05172L5.51245 9.07181C5.34054 9.17215 5.1375 9.20511 4.94269 9.16429C4.74787 9.12347 4.57514 9.01178 4.45797 8.85087C4.31792 8.65656 4.1362 8.49601 3.9261 8.38098C3.716 8.26594 3.48285 8.19934 3.24369 8.18603C3.00453 8.17273 2.76543 8.21306 2.54387 8.30407C2.32231 8.39509 2.1239 8.53449 1.96315 8.71207C1.80241 8.88965 1.68341 9.10092 1.61484 9.33042C1.54628 9.55993 1.52989 9.80186 1.56688 10.0385C1.60387 10.2752 1.6933 10.5006 1.82862 10.6982C1.96395 10.8958 2.14175 11.0607 2.34901 11.1808C2.5163 11.2797 2.64143 11.4367 2.70067 11.6218C2.75991 11.8069 2.74913 12.0073 2.67038 12.185C2.46879 12.704 2.3633 13.2552 2.35905 13.8119C2.35905 15.469 3.32315 17.0557 5.07057 18.2608C6.81799 19.466 9.36883 20.2392 12 20.2392C14.6312 20.2392 17.0916 19.5363 18.9294 18.2608C20.7672 16.9854 21.6409 15.469 21.6409 13.8119C21.6382 13.2541 21.5291 12.702 21.3196 12.185C21.2461 12.0056 21.2391 11.8058 21.2998 11.6217C21.3606 11.4376 21.4851 11.2812 21.651 11.1808C21.8919 11.0382 22.0916 10.8355 22.2307 10.5926C22.3698 10.3497 22.4434 10.0748 22.4444 9.79488Z" fill="#212529"/>
</svg>
