<svg width="24" height="22" viewBox="0 0 24 22" fill="none" xmlns="http://www.w3.org/2000/svg">
<path d="M23.389 0.556996C23.1431 0.348595 22.8453 0.210727 22.5272 0.158047C22.2092 0.105367 21.8828 0.139843 21.5828 0.257812L1.12746 8.29148C0.768675 8.42817 0.464772 8.67901 0.262545 9.00538C0.0603175 9.33175 -0.0290205 9.71554 0.00828714 10.0977C0.0415715 10.4796 0.197788 10.8405 0.453509 11.1262C0.709231 11.4119 1.05068 11.607 1.42664 11.6822L6.62359 12.7128V19.2062C6.62341 19.5575 6.72758 19.9009 6.92289 20.1929C7.11821 20.4848 7.39585 20.7122 7.72061 20.8462C7.93553 20.9326 8.16487 20.9778 8.39654 20.9791C8.6294 20.9799 8.86008 20.9343 9.07509 20.8449C9.29009 20.7555 9.48509 20.624 9.64868 20.4583L12.5297 17.5884L16.8845 21.4224C17.206 21.7059 17.6194 21.8634 18.048 21.8656C18.2365 21.8695 18.4242 21.8395 18.6021 21.7769C18.8945 21.6844 19.1577 21.5172 19.3656 21.2917C19.5736 21.0663 19.7191 20.7905 19.7877 20.4916L23.9541 2.2967C24.027 1.98274 24.0128 1.65487 23.9133 1.34834C23.8137 1.04181 23.6324 0.768224 23.389 0.556996ZM7.29953 11.0395L1.78123 9.94253L17.2502 3.85911L7.29953 11.0395ZM8.39654 19.2062V13.9538L11.1889 16.4138L8.39654 19.2062ZM18.0591 20.0927L8.92843 12.059L22.0815 2.56264L18.0591 20.0927Z" fill="#212529"/>
</svg>
