<svg width="24" height="20" viewBox="0 0 24 20" fill="none" xmlns="http://www.w3.org/2000/svg">
<path d="M15.9 9.28215L10.7571 5.85358C10.627 5.77087 10.4776 5.72343 10.3235 5.71592C10.1695 5.7084 10.0162 5.74107 9.87857 5.81072C9.74154 5.88468 9.62724 5.99458 9.54796 6.1286C9.46868 6.26263 9.4274 6.41572 9.42857 6.57143V13.4286C9.4274 13.5843 9.46868 13.7374 9.54796 13.8714C9.62724 14.0054 9.74154 14.1153 9.87857 14.1893C10.005 14.2526 10.1444 14.2856 10.2857 14.2857C10.4527 14.2839 10.616 14.2357 10.7571 14.1464L15.9 10.7179C16.0194 10.64 16.1175 10.5335 16.1853 10.4082C16.2532 10.2828 16.2888 10.1425 16.2888 10C16.2888 9.85746 16.2532 9.71716 16.1853 9.59182C16.1175 9.46648 16.0194 9.36004 15.9 9.28215ZM11.1429 11.8321V8.16786L13.8857 10L11.1429 11.8321ZM23.3893 3.76429C23.2908 3.36928 23.098 3.00404 22.8274 2.69987C22.5569 2.39571 22.2166 2.16168 21.8357 2.01786C18.1714 0.603576 12.3214 0.614291 12 0.614291C11.6786 0.614291 5.82857 0.603576 2.16429 2.01786C1.78344 2.16168 1.44314 2.39571 1.17256 2.69987C0.901982 3.00404 0.709192 3.36928 0.610714 3.76429C0.332143 4.825 0 6.775 0 10C0 13.225 0.332143 15.175 0.610714 16.2357C0.709192 16.6307 0.901982 16.996 1.17256 17.3001C1.44314 17.6043 1.78344 17.8383 2.16429 17.9821C5.67857 19.3429 11.1857 19.3857 11.925 19.3857H12.075C12.8143 19.3857 18.3214 19.3429 21.8357 17.9821C22.2166 17.8383 22.5569 17.6043 22.8274 17.3001C23.098 16.996 23.2908 16.6307 23.3893 16.2357C23.6679 15.175 24 13.225 24 10C24 6.775 23.6679 4.825 23.3893 3.76429ZM21.7286 15.8071C21.6969 15.9368 21.6347 16.057 21.5471 16.1576C21.4595 16.2583 21.349 16.3365 21.225 16.3857C17.8286 17.6929 12.0643 17.6714 12 17.6714H11.9893C11.9357 17.6714 6.17143 17.6929 2.775 16.3857C2.65097 16.3365 2.54053 16.2583 2.45292 16.1576C2.36531 16.057 2.30308 15.9368 2.27143 15.8071C2.01429 14.8321 1.71429 13.0429 1.71429 10C1.71429 6.95715 2.01429 5.16786 2.27143 4.19286C2.30308 4.06322 2.36531 3.94305 2.45292 3.84239C2.54053 3.74173 2.65097 3.66352 2.775 3.61429C6.04286 2.36072 11.5286 2.32858 11.9786 2.32858H12C12.0643 2.32858 17.8286 2.30715 21.225 3.61429C21.349 3.66352 21.4595 3.74173 21.5471 3.84239C21.6347 3.94305 21.6969 4.06322 21.7286 4.19286C21.9857 5.16786 22.2857 6.95715 22.2857 10C22.2857 13.0429 21.9857 14.8321 21.7286 15.8071Z" fill="#212529"/>
</svg>
