<svg width="24" height="24" viewBox="0 0 24 24" fill="none" xmlns="http://www.w3.org/2000/svg">
<path d="M23.498 6.18604C23.3624 5.67532 23.095 5.20918 22.7226 4.83431C22.3502 4.45943 21.8858 4.18899 21.376 4.05004C19.505 3.54504 12 3.54504 12 3.54504C12 3.54504 4.495 3.54504 2.623 4.05004C2.11341 4.18923 1.64929 4.45978 1.27708 4.83463C0.904861 5.20947 0.637591 5.67548 0.502 6.18604C0 8.07004 0 12 0 12C0 12 0 15.93 0.502 17.814C0.637586 18.3248 0.904975 18.7909 1.27739 19.1658C1.64981 19.5407 2.11418 19.8111 2.624 19.95C4.495 20.455 12 20.455 12 20.455C12 20.455 19.505 20.455 21.377 19.95C21.8869 19.8112 22.3513 19.5408 22.7237 19.1659C23.0961 18.791 23.3635 18.3248 23.499 17.814C24 15.93 24 12 24 12C24 12 24 8.07004 23.498 6.18604ZM9.545 15.568V8.43204L15.818 12L9.545 15.568Z" fill="#212529"/>
</svg>
